<svg version="1.2" xmlns="http://www.w3.org/2000/svg" viewBox="0 0 95 37" width="95" height="37"><style>.a{fill:#c5c5c1}</style><path class="a" d="m94.7 19q-0.1 3-3.2 5.2l-0.1 0.1-20.8 9.9c-0.1 0.1-2 0.8-4 0.8-2.9 0-4.9-1.6-5.6-4.5-0.7-2.9 1-4.9 1.4-5.4l4-5h-24.1l-12.3 14.6h-0.1c-0.1 0.1-2.7 2.2-6.2 2.2l-19.9-0.4h-0.2c-0.2-0.1-1.9-0.6-2.6-2.2-0.4-0.7-0.6-2 0.3-3.6 1.6-3.2 6.7-10.7 6.9-11l0.1-0.1c0 0 0.4-0.5 0.4-1.1 0-0.7-0.4-1.2-0.4-1.2v-0.1c-0.2-0.3-5-8-6.6-11.2-0.8-1.7-0.5-2.9-0.2-3.7 0.8-1.6 2.6-2 2.8-2l0.1-0.1 19.8 0.4c3.5 0 6.1 2.2 6.2 2.3l0.1 0.1 11 14h25l-3.8-5.1c-2.4-3.6-0.9-6.9 0.2-8.2v-0.1c1-1 2.4-1.5 4-1.5 2.2 0 4.1 0.9 4.2 0.9l20.4 10.7 0.1 0.1q3.1 2.3 3.1 5.2z"/></svg>