<svg version="1.2" xmlns="http://www.w3.org/2000/svg" viewBox="0 0 150 60" width="150" height="60"><style>.a{fill:#fff}</style><path class="a" d="m149.9 30.8q-0.2 4.7-5.1 8.3l-0.2 0.1-33.2 15.9c-0.2 0.1-3 1.3-6.3 1.3-4.7 0-7.9-2.6-8.9-7.2-1.1-4.7 1.6-7.9 2.2-8.6l6.4-8h-38.5l-19.6 23.2-0.2 0.1c-0.2 0.2-4.3 3.5-9.9 3.5l-31.8-0.6-0.2-0.1c-0.3 0-3.1-0.9-4.3-3.5-0.5-1.1-0.8-3.1 0.6-5.8 2.6-5 10.7-17 11-17.5l0.1-0.1h0.1c0 0 0.6-0.8 0.6-1.8 0-1-0.6-1.9-0.6-1.9l-0.1-0.1c-0.3-0.6-8-12.8-10.4-17.9-1.3-2.7-0.9-4.7-0.4-5.9 1.3-2.5 4.1-3.2 4.4-3.3l0.3-0.1 31.5 0.6c5.7 0.1 9.8 3.6 10 3.8l0.2 0.1 17.5 22.3h39.8l-6-8.2c-3.8-5.6-1.5-11 0.2-13l0.1-0.1c1.6-1.6 3.8-2.5 6.4-2.5 3.4 0 6.5 1.5 6.6 1.5l32.7 17.1 0.1 0.1c3.3 2.5 4.9 5.3 4.9 8.3z"/></svg>